<?xml version="1.0" encoding="UTF-8" standalone="no"?>
<!-- Created with Inkscape (http://www.inkscape.org/) -->

<svg
   xmlns:dc="http://purl.org/dc/elements/1.1/"
   xmlns:cc="http://creativecommons.org/ns#"
   xmlns:rdf="http://www.w3.org/1999/02/22-rdf-syntax-ns#"
   xmlns:svg="http://www.w3.org/2000/svg"
   xmlns="http://www.w3.org/2000/svg"
   xmlns:sodipodi="http://sodipodi.sourceforge.net/DTD/sodipodi-0.dtd"
   xmlns:inkscape="http://www.inkscape.org/namespaces/inkscape"
   width="210mm"
   height="297mm"
   viewBox="0 0 210 297"
   version="1.1"
   id="svg8"
   inkscape:version="0.92.4 (f8dce91, 2019-08-02)"
   sodipodi:docname="h_club_logo.svg">
  <defs
     id="defs2" />
  <sodipodi:namedview
     id="base"
     pagecolor="#ffffff"
     bordercolor="#666666"
     borderopacity="1.0"
     inkscape:pageopacity="0.0"
     inkscape:pageshadow="2"
     inkscape:zoom="5.6"
     inkscape:cx="295.74627"
     inkscape:cy="524.14482"
     inkscape:document-units="mm"
     inkscape:current-layer="layer1"
     showgrid="false"
     showguides="true"
     inkscape:guide-bbox="true"
     inkscape:window-width="1920"
     inkscape:window-height="1025"
     inkscape:window-x="0"
     inkscape:window-y="27"
     inkscape:window-maximized="1">
    <sodipodi:guide
       position="72.429686,152.70239"
       orientation="0,1"
       id="guide830"
       inkscape:locked="false" />
    <sodipodi:guide
       position="74.414061,144.95387"
       orientation="0,1"
       id="guide832"
       inkscape:locked="false" />
  </sodipodi:namedview>
  <metadata
     id="metadata5">
    <rdf:RDF>
      <cc:Work
         rdf:about="">
        <dc:format>image/svg+xml</dc:format>
        <dc:type
           rdf:resource="http://purl.org/dc/dcmitype/StillImage" />
        <dc:title></dc:title>
      </cc:Work>
    </rdf:RDF>
  </metadata>
  <g
     inkscape:label="Layer 1"
     inkscape:groupmode="layer"
     id="layer1">
    <g
       aria-label="H"
       inkscape:transform-center-x="-4.8108515"
       inkscape:transform-center-y="1.0690781"
       style="font-style:normal;font-weight:normal;font-size:10.58333302px;line-height:1.25;font-family:sans-serif;letter-spacing:0px;word-spacing:0px;fill:#000000;fill-opacity:1;stroke:none;stroke-width:0.26458332"
       id="text817" />
    <path
       id="path828"
       transform="matrix(-1,0,0,-0.55555555,164.2712,231.36467)"
       style="opacity:1;vector-effect:none;fill:#000000;fill-opacity:1;stroke:none;stroke-width:0.62581336;stroke-linecap:butt;stroke-linejoin:miter;stroke-miterlimit:4;stroke-dasharray:none;stroke-dashoffset:0;stroke-opacity:1;paint-order:fill markers stroke"
       d="m 79.912636,142.68727 0.982011,1.70089 h -1.964022 z m 4.927848,14.02353 -0.982011,-1.70089 h 1.964022 z m 0.50009,-1.10558 H 84.29671 v -4.74018 h -3.79305 v 5.69268 h -1.043864 v -12.93501 h 1.043864 v 5.66103 h 3.79305 v -6.61354 h 1.043864 z" />
    <g
       aria-label="CLUB"
       style="font-style:normal;font-weight:normal;font-size:3.17306995px;line-height:1.25;font-family:sans-serif;letter-spacing:0px;word-spacing:0px;fill:#000000;fill-opacity:1;stroke:none;stroke-width:0.07932675"
       id="text859">
      <path
         d="m 79.965251,154.00776 q -0.06197,-0.017 -0.130145,0.0108 -0.105356,0.0449 -0.218459,0.0449 -0.243248,0 -0.413676,-0.19212 -0.16888,-0.19212 -0.16888,-0.46326 0,-0.27269 0.170429,-0.46945 0.168879,-0.19212 0.412127,-0.19212 0.113103,0 0.221557,0.0496 0.06197,0.0294 0.123948,0.009 l 0.0062,-0.003 q 0.11775,-0.0387 0.120849,-0.16423 0,-0.13014 -0.1193,-0.16423 -0.134793,-0.0449 -0.28508,-0.0558 -0.04493,-0.006 -0.06817,-0.003 -0.02169,-0.003 -0.06817,0.003 -0.435368,0.0387 -0.706504,0.29902 -0.281982,0.27269 -0.281982,0.7127 0,0.40748 0.247896,0.66777 0.266488,0.27114 0.74059,0.29438 0.02944,0.005 0.04648,0.005 h 0.01085 q 0.0062,0 0.01085,0 0.0062,0 0.01239,0 h 0.01085 q 0.01704,0 0.04493,-0.005 0.150287,-0.006 0.280432,-0.0403 0.133244,-0.0341 0.133244,-0.16888 0.0015,-0.13635 -0.128596,-0.17508 z"
         style="font-style:normal;font-variant:normal;font-weight:normal;font-stretch:normal;font-size:3.17306995px;font-family:Dyuthi;-inkscape-font-specification:'Dyuthi, Normal';font-variant-ligatures:normal;font-variant-caps:normal;font-variant-numeric:normal;font-feature-settings:normal;text-align:start;writing-mode:lr-tb;text-anchor:start;stroke-width:0.07932675"
         id="path861" />
      <path
         d="m 80.535412,152.43207 q 0.1193,0 0.192119,0.0682 0.06972,0.0651 0.06817,0.16268 l -0.02634,1.34484 0.666221,-0.0294 q 0.07282,-0.003 0.127046,0.0542 0.05268,0.0542 0.05268,0.12705 v 0.003 q 0.0016,0.10226 -0.05268,0.15804 -0.05113,0.0511 -0.127046,0.0511 h -0.890877 q -0.08986,0 -0.153386,-0.062 -0.06197,-0.062 -0.06197,-0.15338 v -1.49358 q 0,-0.0914 0.06817,-0.16268 0.06507,-0.0682 0.133244,-0.0682 z"
         style="font-style:normal;font-variant:normal;font-weight:normal;font-stretch:normal;font-size:3.17306995px;font-family:Dyuthi;-inkscape-font-specification:'Dyuthi, Normal';font-variant-ligatures:normal;font-variant-caps:normal;font-variant-numeric:normal;font-feature-settings:normal;text-align:start;writing-mode:lr-tb;text-anchor:start;stroke-width:0.07932675"
         id="path863" />
      <path
         d="m 83.037613,153.60803 q 0.0015,0.14873 -0.110004,0.26029 -0.110004,0.11 -0.241699,0.11 h -0.01085 q -0.133244,0 -0.246347,-0.11 -0.114652,-0.11156 -0.113102,-0.26804 l 0.0093,-0.9451 q 0,-0.093 -0.06507,-0.16114 -0.06662,-0.0682 -0.161132,-0.0682 h -0.0062 q -0.123948,0.002 -0.192119,0.0682 -0.06507,0.0651 -0.06507,0.16114 v 0.88003 q 0,0.35325 0.246347,0.5996 0.247896,0.24789 0.599598,0.24789 h 0.01704 q 0.343956,0.002 0.582556,-0.24325 0.237051,-0.24169 0.237051,-0.58255 v -0.90172 q 0,-0.0961 -0.06507,-0.16114 -0.06662,-0.0682 -0.189021,-0.0682 h -0.0062 q -0.09606,0.002 -0.164231,0.0682 -0.06507,0.0682 -0.06507,0.16114 z"
         style="font-style:normal;font-variant:normal;font-weight:normal;font-stretch:normal;font-size:3.17306995px;font-family:Dyuthi;-inkscape-font-specification:'Dyuthi, Normal';font-variant-ligatures:normal;font-variant-caps:normal;font-variant-numeric:normal;font-feature-settings:normal;text-align:start;writing-mode:lr-tb;text-anchor:start;stroke-width:0.07932675"
         id="path865" />
      <path
         d="m 84.391746,154.09762 q -0.08366,-0.003 -0.117751,-0.003 -0.02634,0 -0.04338,-0.017 -0.02014,-0.017 -0.02014,-0.0387 v -0.4834 q 0,-0.0263 0.02014,-0.0434 0.02014,-0.017 0.04493,-0.017 h 0.09761 q 0.185922,0 0.295926,0.0573 0.122399,0.062 0.122399,0.25409 0,0.16888 -0.1193,0.23396 -0.110004,0.0573 -0.280432,0.0573 z m -0.181274,-1.2968 q 0,-0.0542 0.05733,-0.0573 0.05578,-0.002 0.130145,-0.003 0.302123,0 0.308321,0.26649 0.0031,0.14099 -0.08831,0.19832 -0.09141,0.0558 -0.26184,0.0558 h -0.08212 q -0.02944,-0.002 -0.04648,-0.017 -0.01704,-0.017 -0.01704,-0.0387 z m 0.718898,0.53607 q 0,-0.0201 0.01704,-0.0294 0.266488,-0.12085 0.266488,-0.36409 0,-0.26649 -0.246346,-0.38424 -0.19212,-0.10071 -0.613543,-0.10536 -0.193669,-0.003 -0.209162,-0.003 -0.147189,-0.003 -0.19212,-0.005 -0.08057,-0.002 -0.14254,0.0558 -0.05888,0.0558 -0.05888,0.13944 v 1.5478 q 0,0.0883 0.06198,0.14254 0.06972,0.0589 0.150287,0.0558 0.277333,-0.0124 0.294376,-0.0109 0.598049,-0.002 0.808761,-0.15493 0.21536,-0.15958 0.213811,-0.39973 0,-0.34086 -0.330012,-0.44002 -0.02014,-0.008 -0.02014,-0.0449 z"
         style="font-style:normal;font-variant:normal;font-weight:normal;font-stretch:normal;font-size:3.17306995px;font-family:Dyuthi;-inkscape-font-specification:'Dyuthi, Normal';font-variant-ligatures:normal;font-variant-caps:normal;font-variant-numeric:normal;font-feature-settings:normal;text-align:start;writing-mode:lr-tb;text-anchor:start;stroke-width:0.07932675"
         id="path867" />
    </g>
  </g>
</svg>
